<svg width="300" height="218" viewBox="0 0 300 218" fill="none" xmlns="http://www.w3.org/2000/svg">
<path d="M5 68.931L41.4987 5H257.271L294.618 68.9338L182.515 212.385L182.02 212.456H118.658L5 68.931Z" stroke="#5036b0" stroke-width="10" stroke-linejoin="round"/>
<path fill-rule="evenodd" clip-rule="evenodd" d="M104.804 43.9764C116.812 31.9681 133.099 25.2219 150.081 25.2219C167.063 25.2219 183.35 31.9681 195.358 43.9764C207.367 55.9847 214.113 72.2714 214.113 89.2537C214.113 110.466 208.041 119.117 178.996 160.494C172.691 169.476 165.304 180 156.662 192.528C155.925 193.591 154.941 194.46 153.795 195.06C152.649 195.66 151.375 195.973 150.081 195.973C148.788 195.973 147.513 195.66 146.367 195.06C145.221 194.46 144.237 193.591 143.5 192.528C134.858 180 127.471 169.476 121.166 160.494C92.1215 119.117 86.0493 110.466 86.0493 89.2537C86.0493 72.2714 92.7955 55.9847 104.804 43.9764ZM134.065 57.8991C138.866 55.1946 144.283 53.7747 149.793 53.7769C158.281 53.7865 166.419 57.1627 172.421 63.1647C178.423 69.1668 181.799 77.3046 181.809 85.7928C181.823 92.305 179.834 98.664 176.11 104.007C172.976 108.538 168.725 112.184 163.769 114.591C158.813 116.998 153.319 118.086 147.82 117.749C142.32 117.411 137.001 115.66 132.376 112.665C127.752 109.67 123.978 105.532 121.421 100.651C118.864 95.7709 117.61 90.313 117.78 84.8058C117.949 79.2986 119.538 73.9284 122.391 69.2148C125.244 64.5011 129.265 60.6035 134.065 57.8991Z" fill="#5036b0"/>
</svg>
